<?xml version="1.0" encoding="UTF-8"?>
<svg xmlns="http://www.w3.org/2000/svg" width="134" height="28" viewBox="0 0 134 28" fill="none">
  <path fill-rule="evenodd" clip-rule="evenodd" d="M35.3332 4.37668L33.5152 -3.8147e-05L32.6314 2.40715L30.8723 7.20471C32.5977 8.31572 33.3805 10.5041 32.6482 12.5073C31.916 14.5104 29.8959 15.672 27.8675 15.4026L26.1084 20.2002C30.7881 21.3954 35.6951 18.8703 37.3953 14.2495C38.6915 10.7229 37.7656 6.92695 35.3332 4.37668ZM29.029 6.53136L30.7881 1.73381C26.1084 0.538634 21.2014 3.06366 19.5013 7.69288C18.2051 11.2195 19.1309 15.0155 21.5634 17.5657L23.3814 21.9424L24.2651 19.5353L26.0242 14.7377C24.2988 13.6267 23.516 11.4383 24.2483 9.43515C24.9806 7.43196 27.0006 6.27045 29.029 6.53978" fill="#F4901D"></path>
  <path fill-rule="evenodd" clip-rule="evenodd" d="M110.024 1.69169L105.748 15.2679L105.555 11.8086L102.221 1.69169H96.1614L103.021 20.2254H109.224L116.084 1.69169H110.024ZM81.5331 1.69169L77.2574 15.2679L77.0638 11.8086L73.7476 1.69169H67.6875L74.5304 20.2254H80.7335L87.5932 1.69169H81.5331ZM94.2761 17.5657V1.70853H90.1519L88.8052 5.31931V20.2422H93.2829L94.2761 17.5741V17.5657ZM65.9285 20.2254L67.3256 16.4799V9.01427C67.3256 4.45239 64.5902 1.45602 60.3902 1.45602C57.7979 1.45602 56.1229 2.40712 55.0961 3.86322C54.0777 2.33137 52.4701 1.45602 50.3154 1.45602C47.8745 1.45602 46.2669 2.40712 45.4252 3.64438V1.68328H41.5788L39.9459 6.13574V20.217H44.1206L45.4168 16.7409V9.92328C45.4168 7.76859 46.4352 6.48924 48.2617 6.48924C50.0881 6.48924 50.8877 7.65917 50.8877 9.48561V20.217H55.1382L56.367 16.9344V9.92328C56.367 7.76859 57.3939 6.48924 59.2119 6.48924C61.0299 6.48924 61.8379 7.65917 61.8379 9.48561V20.217H65.92L65.9285 20.2254ZM124.021 15.3521C121.538 15.3521 119.737 13.6603 119.737 10.9585C119.737 8.25676 121.538 6.56499 124.021 6.56499C126.504 6.56499 128.305 8.25676 128.305 10.9585C128.305 13.6603 126.504 15.3521 124.021 15.3521ZM128.297 1.96945V3.66121C127.11 2.2977 125.351 1.46444 122.935 1.46444C120.999 1.46444 119.106 2.23878 117.666 3.43396L114.417 12.2884C114.998 16.9934 118.617 20.4611 122.935 20.4611C125.351 20.4611 127.11 19.6362 128.297 18.2643V19.9561H133.692V1.96945H128.297ZM9.46043 15.1333C7.12058 15.1333 5.39514 13.4415 5.39514 10.9585C5.39514 8.4756 7.12058 6.78383 9.46043 6.78383C11.0428 6.78383 12.339 7.54134 12.9534 8.79543L17.6668 6.05999C16.1181 3.29088 13.0207 1.45602 9.53618 1.45602C6.70815 1.45602 4.17471 2.6512 2.45769 4.46081L0 11.1858C0.109418 16.4378 4.14104 20.4695 9.53618 20.4695C13.0628 20.4695 16.1181 18.6346 17.6668 15.8234L12.9534 13.1216C12.381 14.3842 11.0428 15.1333 9.46043 15.1333Z" fill="#E31837"></path>
  <path fill-rule="evenodd" clip-rule="evenodd" d="M131.447 27.7977V25.6126L129.841 23.0227H130.664L131.662 24.6414C131.662 24.6414 131.716 24.7358 131.757 24.8032C131.797 24.8707 131.824 24.9516 131.865 25.0191C131.892 24.9381 131.932 24.8707 131.959 24.8032C132 24.7358 132.027 24.6684 132.067 24.6144L133.092 23.0093H133.875L132.229 25.5991V27.7842H131.46M125.188 27.7977V22.8339L128.223 25.7474C128.304 25.8284 128.385 25.9228 128.479 26.0172C128.56 26.1116 128.654 26.2195 128.749 26.3409V23.0362H129.464V28L126.375 25.0325C126.294 24.9516 126.213 24.8707 126.132 24.7763C126.051 24.6818 125.984 24.5874 125.916 24.493V27.8112H125.201L125.188 27.7977ZM121.91 25.9228H123.245L122.76 24.8302C122.733 24.7628 122.706 24.6818 122.665 24.5874C122.639 24.493 122.598 24.3986 122.571 24.2907C122.544 24.3986 122.517 24.493 122.49 24.5874C122.463 24.6818 122.436 24.7628 122.396 24.8302L121.91 25.9228ZM124.055 27.7977L123.515 26.5702H121.627L121.074 27.7977H120.265L122.571 22.8339L124.878 27.7977H124.055ZM118.754 25.0191H118.956C119.388 25.0191 119.671 24.9786 119.819 24.8842C119.968 24.7897 120.035 24.6279 120.035 24.3851C120.035 24.1288 119.954 23.9535 119.806 23.8455C119.658 23.7376 119.374 23.6837 118.956 23.6837H118.754V25.0191ZM118.7 25.653V27.7977H117.971V23.0227H119.145C119.496 23.0227 119.752 23.0497 119.914 23.0767C120.076 23.1172 120.224 23.1846 120.345 23.2655C120.494 23.3734 120.615 23.5218 120.696 23.7107C120.777 23.8995 120.818 24.1018 120.818 24.3311C120.818 24.5604 120.777 24.7628 120.696 24.9516C120.615 25.1405 120.494 25.2888 120.345 25.3967C120.224 25.4777 120.076 25.5451 119.914 25.5856C119.752 25.626 119.496 25.6395 119.145 25.6395H118.7V25.653ZM116.11 25.4372C116.11 25.4372 116.083 25.3023 116.07 25.127C116.056 24.9921 116.043 24.8707 116.029 24.7763C116.016 24.8842 115.975 24.9921 115.948 25.1C115.908 25.2079 115.867 25.3158 115.813 25.4372L114.559 27.9866L113.304 25.3967C113.25 25.2888 113.21 25.1809 113.169 25.0865C113.129 24.9921 113.102 24.8842 113.062 24.7897C113.062 24.8842 113.062 24.9921 113.035 25.1C113.035 25.2079 112.994 25.3293 112.967 25.4372L112.455 27.7842H111.74L112.873 22.8069L114.276 25.8149C114.276 25.8149 114.33 25.9363 114.37 26.0577C114.41 26.1656 114.464 26.3005 114.532 26.4623C114.572 26.3275 114.653 26.1521 114.748 25.9363C114.775 25.8823 114.788 25.8284 114.802 25.8014L116.177 22.7934L117.324 27.7707H116.609L116.083 25.4102L116.11 25.4372ZM110.782 25.4237C110.782 25.1809 110.742 24.9516 110.647 24.7358C110.553 24.52 110.431 24.3311 110.269 24.1558C110.108 23.9939 109.919 23.859 109.716 23.7646C109.501 23.6702 109.285 23.6297 109.042 23.6297C108.799 23.6297 108.583 23.6702 108.368 23.7646C108.152 23.859 107.963 23.9804 107.801 24.1558C107.639 24.3176 107.504 24.52 107.423 24.7358C107.329 24.9516 107.288 25.1809 107.288 25.4237C107.288 25.6665 107.329 25.8958 107.423 26.1116C107.504 26.3275 107.639 26.5163 107.801 26.6916C107.963 26.8535 108.152 26.9884 108.368 27.0828C108.583 27.1772 108.799 27.2177 109.042 27.2177C109.285 27.2177 109.501 27.1772 109.703 27.0828C109.905 26.9884 110.108 26.867 110.269 26.6916C110.431 26.5163 110.566 26.3275 110.647 26.1116C110.742 25.8958 110.782 25.6665 110.782 25.4237ZM111.591 25.4237C111.591 25.7609 111.524 26.0847 111.402 26.3814C111.268 26.6782 111.092 26.9479 110.849 27.1907C110.607 27.4335 110.323 27.6089 110.013 27.7303C109.703 27.8517 109.379 27.9191 109.042 27.9191C108.705 27.9191 108.368 27.8517 108.057 27.7303C107.747 27.5954 107.477 27.42 107.235 27.1907C106.992 26.9479 106.803 26.6782 106.681 26.3814C106.56 26.0847 106.493 25.7609 106.493 25.4237C106.493 25.0865 106.56 24.7628 106.681 24.4525C106.803 24.1558 106.992 23.886 107.235 23.6432C107.477 23.4004 107.761 23.2251 108.057 23.1037C108.368 22.9823 108.691 22.9148 109.042 22.9148C109.393 22.9148 109.716 22.9823 110.013 23.1037C110.323 23.2251 110.593 23.4139 110.836 23.6432C111.079 23.886 111.268 24.1558 111.389 24.466C111.51 24.7763 111.578 25.0865 111.578 25.4237M106.007 24.1828C105.791 23.9939 105.562 23.859 105.306 23.7646C105.063 23.6702 104.807 23.6162 104.537 23.6162C104.011 23.6162 103.593 23.7781 103.269 24.1153C102.945 24.4525 102.783 24.8842 102.783 25.4102C102.783 25.9363 102.945 26.3544 103.255 26.6782C103.566 27.0154 103.97 27.1772 104.456 27.1772C104.739 27.1772 105.009 27.1233 105.265 27.0289C105.521 26.9344 105.764 26.7726 105.994 26.5702V27.447C105.791 27.5954 105.562 27.7033 105.306 27.7842C105.063 27.8517 104.793 27.8921 104.51 27.8921C104.146 27.8921 103.808 27.8247 103.498 27.7168C103.188 27.5954 102.918 27.42 102.675 27.1907C102.446 26.9614 102.271 26.6916 102.136 26.3814C102.014 26.0712 101.947 25.7474 101.947 25.3967C101.947 25.046 102.014 24.7223 102.136 24.4121C102.257 24.1018 102.446 23.8321 102.675 23.6028C102.918 23.3734 103.188 23.1981 103.485 23.0767C103.795 22.9553 104.119 22.9013 104.483 22.9013C104.766 22.9013 105.036 22.9418 105.279 23.0227C105.535 23.1037 105.778 23.2251 106.021 23.3869L105.98 24.1693L106.007 24.1828ZM96.7404 25.9228H98.0757L97.5902 24.8302C97.5632 24.7628 97.5362 24.6818 97.4957 24.5874C97.4687 24.493 97.4418 24.3986 97.4013 24.2907C97.3743 24.3986 97.3473 24.493 97.3204 24.5874C97.2934 24.6818 97.2664 24.7628 97.226 24.8302L96.7404 25.9228ZM98.8851 27.7977L98.3455 26.5702H96.4571L95.9041 27.7977H95.0948L97.4013 22.8339L99.7079 27.7977H98.8851ZM92.37 25.0595H92.5049C92.9096 25.0595 93.1929 25.0056 93.3277 24.9111C93.4626 24.8167 93.5301 24.6414 93.5301 24.3986C93.5301 24.1288 93.4626 23.9535 93.3142 23.8455C93.1659 23.7376 92.8961 23.6837 92.5049 23.6837H92.37V25.0595ZM92.3296 25.653V27.7842H91.6012V23.0093H92.6803C93.004 23.0093 93.2468 23.0362 93.4222 23.0767C93.5975 23.1172 93.7459 23.1846 93.8673 23.279C94.0157 23.4004 94.1236 23.5488 94.2045 23.7241C94.2854 23.913 94.3259 24.1018 94.3259 24.3311C94.3259 24.7088 94.2315 25.0056 94.0426 25.2349C93.8538 25.4507 93.584 25.5856 93.2198 25.626L94.8654 27.7977H93.9887L92.397 25.6665H92.3161L92.3296 25.653ZM87.703 27.0963H88.3504C88.7146 27.0963 88.9709 27.0693 89.1598 27.0289C89.3351 26.9749 89.497 26.894 89.6319 26.7861C89.8072 26.6377 89.9421 26.4354 90.0365 26.2061C90.1309 25.9767 90.1714 25.707 90.1714 25.4102C90.1714 25.1135 90.1309 24.8437 90.0365 24.6144C89.9421 24.3851 89.8072 24.1963 89.6319 24.0344C89.497 23.9265 89.3351 23.8455 89.1463 23.7916C88.9574 23.7376 88.6607 23.7241 88.2695 23.7241H87.703V27.0963ZM86.9207 27.7977V23.0227H87.9728C88.6472 23.0227 89.1328 23.0497 89.4026 23.1306C89.6858 23.1981 89.9286 23.3195 90.1309 23.4814C90.4142 23.6972 90.6165 23.9669 90.7514 24.2907C90.8998 24.6144 90.9672 24.9921 90.9672 25.4237C90.9672 25.8554 90.8998 26.2195 90.7514 26.5433C90.6165 26.867 90.4007 27.1368 90.1309 27.3526C89.9286 27.5144 89.6858 27.6224 89.416 27.7033C89.1463 27.7707 88.7281 27.8112 88.1751 27.8112H86.9207V27.7977ZM81.822 27.7977V22.8339L84.8569 25.7474C84.9378 25.8284 85.0188 25.9228 85.1132 26.0172C85.1941 26.1116 85.2885 26.2195 85.383 26.3409V23.0362H86.0979V28L83.009 25.0325C82.928 24.9516 82.8471 24.8707 82.7662 24.7763C82.6852 24.6818 82.6178 24.5874 82.5503 24.493V27.8112H81.8354L81.822 27.7977ZM80.2033 23.0227H80.9722V27.7977H80.2033V23.0227ZM75.4553 27.7977V23.0227H76.2377V24.7897H78.5847V23.0227H79.3535V27.7977H78.5847V25.4777H76.2377V27.7977H75.4553ZM72.0427 25.9228H73.3781L72.8925 24.8302C72.8655 24.7628 72.8385 24.6818 72.8116 24.5874C72.7846 24.493 72.7576 24.3986 72.7171 24.2907C72.6902 24.3986 72.6632 24.493 72.6362 24.5874C72.6092 24.6818 72.5823 24.7628 72.5418 24.8302L72.0562 25.9228H72.0427ZM74.1874 27.7977L73.6479 26.5702H71.7594L71.2064 27.7977H70.3971L72.7037 22.8339L75.0102 27.7977H74.1874ZM68.765 25.4372C68.765 25.4372 68.738 25.3023 68.7245 25.127C68.711 24.9921 68.6975 24.8707 68.684 24.7763C68.6706 24.8842 68.6301 24.9921 68.6031 25.1C68.5627 25.2079 68.5222 25.3158 68.4682 25.4372L67.2138 27.9866L65.9594 25.3967C65.9054 25.2888 65.8649 25.1809 65.8245 25.0865C65.784 24.9921 65.757 24.8842 65.73 24.7897C65.73 24.8842 65.73 24.9921 65.7031 25.1C65.6896 25.2079 65.6626 25.3293 65.6356 25.4372L65.1231 27.7842H64.4082L65.5412 22.8069L66.944 25.8149C66.944 25.8149 66.998 25.9363 67.0384 26.0577C67.0789 26.1656 67.1329 26.3005 67.2003 26.4623C67.2408 26.3275 67.3217 26.1521 67.4161 25.9363C67.4431 25.8823 67.4701 25.8284 67.4701 25.8014L68.8459 22.7934L69.9924 27.7707H69.2775L68.7515 25.4102L68.765 25.4372ZM57.8662 27.7977V23.0227H58.635V24.7897H60.982V23.0227H61.7644V27.7977H60.982V25.4777H58.635V27.7977H57.8662ZM56.9085 24.1828C56.6927 23.9939 56.4499 23.859 56.2071 23.7646C55.9643 23.6702 55.708 23.6162 55.4382 23.6162C54.9122 23.6162 54.494 23.7781 54.1568 24.1153C53.8331 24.4525 53.6712 24.8842 53.6712 25.4102C53.6712 25.9363 53.8331 26.3544 54.1433 26.6782C54.467 27.0154 54.8582 27.1772 55.3438 27.1772C55.6271 27.1772 55.8968 27.1233 56.1531 27.0289C56.4094 26.9344 56.6522 26.7726 56.8815 26.5702V27.447C56.6792 27.5954 56.4499 27.7033 56.2071 27.7842C55.9643 27.8517 55.6945 27.8921 55.4113 27.8921C55.0471 27.8921 54.7098 27.8247 54.3996 27.7168C54.0894 27.5954 53.8196 27.42 53.5903 27.1907C53.361 26.9614 53.1721 26.6916 53.0507 26.3814C52.9293 26.0712 52.8619 25.7474 52.8619 25.3967C52.8619 25.046 52.9159 24.7223 53.0507 24.4121C53.1721 24.1018 53.361 23.8321 53.5903 23.6028C53.8196 23.3734 54.1029 23.1981 54.3996 23.0767C54.7098 22.9553 55.0336 22.9013 55.3978 22.9013C55.681 22.9013 55.9508 22.9418 56.2071 23.0227C56.4634 23.1037 56.7062 23.2251 56.949 23.3869L56.9085 24.1693V24.1828ZM49.5167 27.7977V23.0227H52.1875V23.6837H50.2991V24.8842H52.1875V25.5721H50.2991V27.1098H52.1875V27.8112H49.5167V27.7977ZM47.6688 23.6837V27.7977H46.8999V23.6837H45.632V23.0227H48.9367V23.6837H47.6688ZM40.6952 25.9228H42.0305L41.545 24.8302C41.518 24.7628 41.491 24.6818 41.4505 24.5874C41.4236 24.493 41.3966 24.3986 41.3561 24.2907C41.3291 24.3986 41.3022 24.493 41.2752 24.5874C41.2482 24.6818 41.2212 24.7628 41.1808 24.8302L40.6952 25.9228ZM42.8399 27.7977L42.3003 26.5702H40.4119L39.8589 27.7977H39.0496L41.3561 22.8339L43.6627 27.7977H42.8399Z" fill="#949698"></path>
</svg>
