<svg xmlns="http://www.w3.org/2000/svg" width="68" height="68" viewBox="0 0 68 68">
  <g id="Group_29" data-name="Group 29" transform="translate(0.041 -0.456)">
    <rect id="Rectangle_16" data-name="Rectangle 16" width="68" height="68" transform="translate(-0.041 0.456)" fill="none"/>
    <g id="Group_1" data-name="Group 1" transform="translate(12.655 2.768)">
      <path id="Path_4" data-name="Path 4" d="M264.25,140.851c-.388.479-1.982,1.786-4.174,7.217a34.536,34.536,0,0,0-1.64,18.733c1.249,6.57,3.141,9.3,5.09,11.758a13.658,13.658,0,0,0,9.513,4.9,17.031,17.031,0,0,0,8.737-1.688c2.274-.9,2.786-.058,2.786-.058,1.5,1.993,3.936,2.483,6.2,2.283,7.475-.651,10.721-14.947,11.057-18.869.247-2.8.531-8.147-.734-11.819-1.415-4.511-3.64-6.212-5.738-6.82-2.414-.706-6.386-.99-8.415,3.122-1.683,3.407.193,7.936.935,9.739.928,2.269,2.157,5.617.854,8.875-.038.1-.08.184-.118.277a7.266,7.266,0,0,1-13.972-2.119,10.831,10.831,0,0,1-.041-2.333c.382-5.665,3.235-9.552,5.124-13.612,3.468-7.433.613-11.334-1.89-12.628a10.346,10.346,0,0,0-4.8-1.226c-5.221,0-8.778,4.272-8.778,4.272" transform="translate(-257.835 -136.582)" fill="#ff7b00"/>
      <path id="Path_5" data-name="Path 5" d="M418.692,425.257c-.007-.011-.019-.016-.027-.028.007.017.016.017.027.028" transform="translate(-393.075 -379.304)" fill="#ff7b00"/>
      <path id="Path_6" data-name="Path 6" d="M304.649,496.544a1.061,1.061,0,0,1-.089.547.6.6,0,0,1-1.03,0,1.077,1.077,0,0,1-.088-.547v-2.928c0-.95-.533-1.348-1.208-1.348a1.188,1.188,0,0,0-1.244,1.288v2.989a1.076,1.076,0,0,1-.088.547.6.6,0,0,1-1.031,0,1.075,1.075,0,0,1-.088-.547v-2.93c0-.95-.533-1.348-1.207-1.348a1.2,1.2,0,0,0-1.243,1.348v2.929a1.073,1.073,0,0,1-.088.547.6.6,0,0,1-1.031,0,1.067,1.067,0,0,1-.089-.547v-4.518a.969.969,0,0,1,.107-.583.613.613,0,0,1,.988-.018.713.713,0,0,1,.107.4,2.155,2.155,0,0,1,1.581-.668,1.912,1.912,0,0,1,1.705.889,2.269,2.269,0,0,1,1.882-.889,2.151,2.151,0,0,1,1.517.554,2.284,2.284,0,0,1,.64,1.72Z" transform="translate(-290.028 -434.745)" fill="#ff7b00"/>
      <path id="Path_7" data-name="Path 7" d="M358.307,495.95a1.277,1.277,0,0,0,1.752,0,3.554,3.554,0,0,0,0-3.333,1.278,1.278,0,0,0-1.752,0,3.552,3.552,0,0,0,0,3.333m-.918-4.066a2.587,2.587,0,0,1,3.587,0,4.437,4.437,0,0,1,0,4.8,2.593,2.593,0,0,1-3.587,0,4.441,4.441,0,0,1,0-4.8" transform="translate(-340.956 -434.747)" fill="#ff7b00"/>
      <path id="Path_8" data-name="Path 8" d="M397.86,479.366c-1.095,0-1.249.932-1.249,2.015s.154,2.015,1.249,2.015,1.244-.932,1.244-2.015-.154-2.015-1.244-2.015m-2.451-2.712a1.062,1.062,0,0,1,.089-.547.6.6,0,0,1,1.029,0,1.057,1.057,0,0,1,.09.547v2.292a1.839,1.839,0,0,1,1.574-.686,2.022,2.022,0,0,1,1.456.541,5.342,5.342,0,0,1,0,5.161,2.057,2.057,0,0,1-1.467.541,1.851,1.851,0,0,1-1.569-.7.705.705,0,0,1-.107.433.614.614,0,0,1-.988-.019.966.966,0,0,1-.107-.583Z" transform="translate(-373.517 -421.845)" fill="#ff7b00"/>
      <path id="Path_9" data-name="Path 9" d="M434.031,483.039a.6.6,0,0,1-1.029,0,1.066,1.066,0,0,1-.089-.547v-4.523a1.066,1.066,0,0,1,.089-.548.6.6,0,0,1,1.029,0,1.065,1.065,0,0,1,.089.548v4.523a1.067,1.067,0,0,1-.089.547m-.515-8.589a.74.74,0,1,1-.728.741.74.74,0,0,1,.728-.741" transform="translate(-404.951 -420.694)" fill="#ff7b00"/>
      <path id="Path_10" data-name="Path 10" d="M450.043,476.578a1.061,1.061,0,0,1,.089-.547.6.6,0,0,1,1.03,0,1.066,1.066,0,0,1,.089.547v6.044c0,.421.166.691.611.7a.938.938,0,0,1,.438.084.475.475,0,0,1,.243.433.466.466,0,0,1-.243.427,1.051,1.051,0,0,1-.509.1h-.119a1.546,1.546,0,0,1-1.629-1.69Z" transform="translate(-419.459 -421.78)" fill="#ff7b00"/>
      <path id="Path_11" data-name="Path 11" d="M471.125,492.957a1.3,1.3,0,0,0-2.38,0,1.932,1.932,0,0,0-.154.83h2.7a2.092,2.092,0,0,0-.166-.83m-1.184-1.792a2.538,2.538,0,0,1,2.54,2.772.73.73,0,0,1-.166.548.684.684,0,0,1-.533.157h-3.192c0,1.04.54,1.719,1.54,1.719a1.808,1.808,0,0,0,1.154-.385.785.785,0,0,1,.492-.221.536.536,0,0,1,.5.522c0,.283-.309.548-.6.741a2.836,2.836,0,0,1-1.569.391c-1.5,0-2.705-.8-2.705-3.122,0-2.009,1.012-3.122,2.545-3.122" transform="translate(-434.052 -434.749)" fill="#ff7b00"/>
    </g>
  </g>
</svg>
